<?xml version="1.0" encoding="UTF-8"?>
<svg xmlns="http://www.w3.org/2000/svg" xmlns:xlink="http://www.w3.org/1999/xlink" width="2700pt" height="2619pt" viewBox="2362 846 2700 2619" version="1.2">
<g id="surface1">
<path style=" stroke:none;fill-rule:nonzero;fill:rgb(0%,0%,0%);fill-opacity:1;" d="M 4765.503906 2759.265625 L 4808.730469 2728.628906 C 4812.996094 2725.605469 4817.523438 2720.03125 4817.675781 2716.050781 C 4817.820312 2712.390625 4816.097656 2703.621094 4813.402344 2700.933594 L 4771.3125 2658.96875 L 4757.496094 2649.296875 L 4756.855469 2627.171875 L 4753.273438 2627.199219 L 4754.613281 2706.390625 L 4758.292969 2735.027344 L 4758.414062 2754.945312 L 4756.964844 2787.46875 C 4765.238281 2784.757812 4757.195312 2765.15625 4765.503906 2759.265625 M 4053.132812 1337.050781 L 4030.363281 1330.417969 L 4005.320312 1317.550781 L 4011.078125 1425.6875 C 4027.828125 1395.714844 4040 1368.886719 4053.132812 1337.050781 M 4102.683594 985.960938 L 4120.863281 1000.449219 C 4118.40625 980.277344 4109.125 972.808594 4103.703125 961.164062 C 4094.46875 941.316406 4070.242188 921.71875 4049.605469 917.996094 C 4039.617188 916.195312 4029.53125 926.621094 4023.28125 930.839844 L 4027.664062 935.722656 C 4021.34375 934.5625 4016.507812 934.5 4014.78125 938.101562 C 4008.414062 951.382812 4030.542969 950.929688 4038.183594 968.304688 L 4010.097656 946.453125 L 4004.914062 961.394531 L 4015.375 968.707031 L 4016.929688 969.511719 L 4029.421875 978.675781 L 4030.675781 979.585938 L 4037.320312 984.777344 L 4038.632812 985.796875 L 4047.496094 991.597656 C 4053.015625 995.210938 4057.1875 997.378906 4059.632812 1003.957031 C 4055.359375 1001.820312 4053.238281 1000.085938 4049.96875 997.511719 L 4037.148438 987.421875 L 4035.769531 986.78125 L 4028.496094 981.746094 C 4028.261719 981.585938 4028.066406 981.070312 4027.832031 980.597656 L 4014.53125 972.027344 C 4014.300781 971.878906 4014.316406 971.066406 4014.246094 970 L 3999.988281 964.535156 L 3995.167969 969.496094 C 3994.082031 970.613281 3995.9375 975.203125 3996.941406 976.390625 L 4011.25 987.703125 L 3992.472656 978.832031 L 3989.242188 990.746094 L 4002.835938 1000.417969 L 4013.875 1008.269531 L 4014.960938 1009.273438 C 4020.675781 1012.019531 4030.40625 1015.480469 4029.636719 1024.140625 L 4013.714844 1010.449219 L 4011.972656 1010.609375 L 4003.171875 1004.40625 L 3987.453125 993.007812 L 3975.585938 1053.035156 L 3978.800781 1056.808594 C 3979.355469 1057.460938 3974.546875 1058.585938 3974.460938 1059.429688 L 3971.722656 1086.558594 L 3992.199219 1101.796875 C 3983.796875 1099.511719 3980.746094 1096.570312 3972.039062 1091.101562 C 3970.574219 1096.675781 3971.730469 1103.316406 3973.773438 1106.902344 C 3971.917969 1109.347656 3967.875 1117.140625 3971.890625 1121.792969 C 3976.078125 1126.644531 3984.082031 1132.605469 3988.964844 1134.824219 L 3990.742188 1135.628906 C 3993.945312 1137.65625 3997.113281 1140.585938 3999.132812 1144.355469 L 3989.058594 1137.363281 L 3987.992188 1136.621094 L 3972.609375 1127.503906 C 3969.832031 1135.40625 3972.195312 1144.300781 3979.5625 1148.628906 L 3980.792969 1149.457031 L 4001.503906 1162.5625 L 4002.664062 1163.640625 L 4025.667969 1177.414062 L 4038.242188 1185.136719 C 4037.417969 1186.398438 4033.445312 1188.910156 4032.789062 1187.90625 L 4030.601562 1184.558594 L 4001.164062 1165.332031 L 3999.832031 1164.167969 C 3993.96875 1161.417969 3983.898438 1155.960938 3979.464844 1151.605469 L 3977.628906 1149.632812 C 3975.265625 1149.328125 3971.941406 1153.851562 3971.988281 1157.097656 C 3972.027344 1159.6875 3974.714844 1164.34375 3976.835938 1165.929688 L 3983.382812 1170.832031 L 3984.757812 1171.917969 L 3998.339844 1180.914062 L 4064.582031 1222.808594 L 4064.546875 1230.460938 L 4064.773438 1231.734375 L 4066.699219 1242.625 L 4062.203125 1233.566406 C 4062.070312 1233.296875 4062.269531 1232.738281 4062.511719 1231.746094 C 4063.148438 1223.429688 4049.820312 1215.105469 4040.730469 1213.855469 L 4030.242188 1204.5 C 4028.375 1202.835938 4022.730469 1201.113281 4020.414062 1200.140625 L 4007.753906 1189.839844 C 4007.027344 1189.25 4003.207031 1190.824219 4002.417969 1191.328125 C 4001.628906 1191.835938 4000.964844 1186.777344 4000.210938 1186.21875 L 3983.230469 1173.582031 L 3982.207031 1171.851562 L 3977.308594 1172.667969 C 3973.988281 1173.222656 3974.421875 1188.742188 3989.480469 1198.929688 L 3990.828125 1200.203125 L 4008.945312 1212.054688 L 4029.195312 1223.191406 L 4030.664062 1241.84375 C 4026.886719 1219.558594 4008.058594 1216.820312 4008.820312 1214.527344 C 4009.148438 1213.535156 4008.304688 1216.128906 4007.367188 1219.003906 L 3989.394531 1201.074219 L 3988.140625 1200.265625 L 3981.738281 1199.855469 C 3978.742188 1218.46875 3988.425781 1224.347656 4005.320312 1234.535156 L 4006.664062 1235.347656 L 4026.492188 1246.800781 C 4030.886719 1249.339844 4034.605469 1251.15625 4037.921875 1253.980469 L 4038.71875 1255.644531 C 4044.53125 1259.40625 4054.550781 1259.351562 4057.488281 1270.167969 L 4037.179688 1257.179688 L 4035.527344 1257.140625 L 4020.683594 1246.523438 L 4018.375 1256.710938 L 4015.726562 1243.742188 L 4005.1875 1237.257812 L 4004.207031 1236.265625 L 3987.863281 1227.292969 C 3986.996094 1231.066406 3987.5 1237.300781 3989.527344 1241.253906 L 4007.207031 1275.691406 C 4012.003906 1285.035156 4017.441406 1293.046875 4026.746094 1298.65625 L 4048.3125 1311.648438 C 4051.097656 1313.328125 4058.644531 1308.984375 4059.816406 1306.714844 L 4068.53125 1309.414062 C 4071.066406 1310.199219 4073.992188 1302.972656 4073.964844 1298.667969 L 4080.578125 1302.414062 C 4084.96875 1299.75 4088.863281 1292.933594 4088.84375 1287.359375 L 4075.53125 1279.210938 L 4074.121094 1277.59375 L 4071.292969 1280.238281 C 4072.703125 1285.675781 4073.003906 1286.984375 4071.933594 1283.253906 L 4062.074219 1269.453125 L 4075.40625 1276.289062 C 4075.691406 1276.433594 4076.003906 1276.882812 4076.554688 1277.539062 L 4091.949219 1285.457031 C 4094.109375 1284.378906 4097.835938 1279.257812 4098.695312 1275.84375 C 4099.480469 1272.726562 4094.914062 1268.101562 4091.59375 1265.9375 L 4075.15625 1255.195312 L 4074.238281 1254.015625 L 4069.574219 1252.113281 C 4068.292969 1251.589844 4067.46875 1256.15625 4066.984375 1258.089844 C 4064.585938 1251.984375 4060.613281 1246.839844 4055.316406 1242.867188 L 4054.207031 1242.285156 L 4048.597656 1243.03125 C 4051.195312 1242.683594 4036.984375 1233.046875 4031.375 1225.785156 L 4055.851562 1240.242188 L 4057.03125 1240.984375 L 4075.363281 1252.21875 L 4076.820312 1253.316406 L 4100.765625 1267.699219 C 4103.433594 1268.257812 4107.367188 1261.933594 4107.710938 1258.386719 C 4108 1255.371094 4103.554688 1251.128906 4100.339844 1249.234375 L 4088.753906 1242.421875 C 4080.765625 1237.722656 4071.980469 1233.777344 4067.90625 1225.414062 L 4096.222656 1243.097656 L 4110.519531 1252.167969 C 4112.386719 1247.796875 4114.054688 1242.25 4114.445312 1237.558594 L 4074.910156 1211.617188 L 4073.953125 1210.996094 C 4071.183594 1210.734375 4067.4375 1208.144531 4064.917969 1205.417969 L 4063.660156 1205.070312 L 4051.503906 1198.007812 C 4046.660156 1195.195312 4042.03125 1192.777344 4039.714844 1186.878906 L 4065.230469 1202.386719 L 4066.636719 1203.417969 L 4075.707031 1208.546875 L 4076.636719 1209.378906 L 4117.332031 1235.257812 C 4119.15625 1232.53125 4121.398438 1227.515625 4121.109375 1225.261719 C 4120.09375 1217.375 4108.96875 1217.003906 4104.835938 1209.367188 L 4122.539062 1218.015625 C 4124.09375 1216.574219 4125.550781 1208.125 4123.21875 1206.269531 C 4117.261719 1203.03125 4109.25 1198.964844 4107.046875 1191.679688 L 4125.019531 1204.109375 C 4136.78125 1187.511719 4109.347656 1187.378906 4099.164062 1169.242188 L 4127.804688 1188.316406 C 4131.175781 1186.5 4132.207031 1178.582031 4129.691406 1176.441406 L 4116.753906 1165.449219 L 4132.988281 1174.222656 L 4133.316406 1161.660156 L 4136.128906 1145.996094 C 4137.132812 1140.414062 4136.050781 1134.507812 4134.570312 1129.195312 C 4135.480469 1127.949219 4139.152344 1123.023438 4138.089844 1120.890625 L 4133.207031 1111.09375 L 4136.492188 1110.675781 C 4138.03125 1110.476562 4140.191406 1099.847656 4131.988281 1092.476562 L 4137.082031 1093.382812 C 4137.203125 1090.324219 4137.613281 1081.714844 4135.128906 1079.847656 L 4123.898438 1071.417969 L 4112.761719 1062.605469 L 4098.234375 1051.976562 L 4096.855469 1058.40625 C 4094.472656 1052.582031 4092.105469 1047.71875 4089.894531 1045.035156 C 4089.664062 1044.757812 4088.878906 1044.308594 4088.246094 1043.921875 C 4081.761719 1039.949219 4072.679688 1038.449219 4069.507812 1027.621094 L 4089.605469 1042.574219 L 4091 1043.222656 L 4121.652344 1065.542969 L 4135.769531 1075.898438 C 4135.644531 1068.242188 4135.238281 1063.058594 4133.816406 1059.988281 L 4122.953125 1049.515625 L 4121.460938 1048.175781 C 4116.21875 1043.484375 4104.769531 1037.335938 4099.617188 1029.503906 L 4123.539062 1046.277344 L 4124.398438 1047.902344 L 4133.164062 1051.878906 C 4135.601562 1043.671875 4132.960938 1036.117188 4126.164062 1031.066406 L 4098.738281 1010.699219 L 4088.953125 1003.476562 C 4088.3125 1002.898438 4087.949219 1002.484375 4087.59375 1002.332031 C 4082.226562 1000.03125 4073.535156 994.476562 4069.414062 987.34375 L 4089.542969 1000.675781 L 4090.699219 1001.472656 L 4112.371094 1016.765625 L 4129.367188 1029.039062 C 4127.894531 1008.367188 4121.941406 1004.835938 4106.457031 994.671875 L 4101.285156 987.179688 L 4099.625 986.433594 C 4098.957031 987.117188 4097.84375 988.292969 4097.492188 989.25 L 4095.46875 994.738281 L 4090.34375 976.582031 L 4101.351562 985.039062 Z M 4573.097656 870.007812 L 4575.015625 870 L 4586.132812 884.871094 L 4590.234375 889.175781 C 4591.734375 890.75 4594.699219 876.953125 4598.335938 878.246094 L 4604.914062 880.589844 C 4616.003906 902.082031 4628.292969 920.503906 4644.476562 939.292969 L 4648.617188 937.425781 L 4657.84375 914.550781 L 4663.871094 885.976562 C 4664.785156 881.628906 4669.484375 875.675781 4674.480469 872.453125 C 4677.71875 870.367188 4685.613281 877.453125 4685.515625 881.875 L 4684.246094 939.359375 C 4683.753906 961.761719 4712.414062 986.046875 4708.902344 1028.1875 L 4694.15625 1205.089844 L 4688.757812 1233.601562 L 4683.472656 1270.101562 L 4678.265625 1300.359375 L 4671.832031 1334.179688 L 4662.710938 1365.148438 L 4643.296875 1442.09375 L 4628.808594 1489.570312 C 4624.925781 1502.289062 4620.675781 1517.734375 4614.167969 1528.546875 C 4609.554688 1536.207031 4605.65625 1538.664062 4605.242188 1547.816406 L 4604.324219 1568.101562 L 4602.300781 1585.53125 C 4605.433594 1608.613281 4590.234375 1622.855469 4589.417969 1633.992188 C 4588.003906 1653.28125 4587.882812 1673.894531 4590.402344 1692.300781 L 4595.3125 1728.207031 C 4598.765625 1753.464844 4634.949219 1803.984375 4650.535156 1880.335938 L 4673.628906 1993.429688 L 4692.261719 2100.597656 L 4700.328125 2179.964844 L 4702.453125 2226.753906 C 4702.972656 2238.179688 4710.867188 2248.636719 4715.449219 2260.015625 L 4711.425781 2279.066406 C 4711.707031 2279.539062 4715.320312 2278.78125 4715.671875 2277.832031 L 4719.734375 2266.84375 C 4741.679688 2282.085938 4765.847656 2266.863281 4786.238281 2274.21875 C 4805.179688 2281.054688 4810.039062 2312.890625 4832.4375 2322.058594 C 4849.644531 2329.101562 4865.257812 2342.65625 4867.886719 2362.132812 C 4870.617188 2382.390625 4874.890625 2400.847656 4885.640625 2419.003906 L 5017.796875 2642.179688 C 5026.335938 2656.601562 5032.441406 2671.679688 5036.011719 2687.757812 C 5038.371094 2698.378906 5037.46875 2711.804688 5036.132812 2722.863281 C 5034.578125 2735.703125 5024.1875 2746.601562 5015.328125 2755.335938 L 4978.886719 2791.261719 L 4908.359375 2862.328125 L 4894.328125 2874.316406 L 4835.710938 2919.667969 L 4761.558594 2973.515625 L 4730.128906 2989.761719 C 4722.710938 2993.597656 4721.507812 3000.464844 4721.574219 3009.054688 L 4721.777344 3036.59375 C 4721.835938 3044.800781 4723.507812 3051.632812 4721.96875 3059.382812 C 4720.003906 3069.277344 4722.511719 3077.003906 4725.859375 3086.011719 C 4731.273438 3100.589844 4733.132812 3117.050781 4742.0625 3130.164062 C 4751.578125 3144.140625 4778.277344 3148.421875 4793.636719 3174.085938 C 4803.191406 3190.046875 4785.945312 3210.222656 4769.121094 3213.253906 C 4739.941406 3218.511719 4709.992188 3219.726562 4681.941406 3207.703125 C 4659.320312 3198.003906 4637.257812 3183.8125 4620.472656 3166.046875 C 4601.167969 3145.617188 4583.851562 3127.6875 4560.476562 3110.597656 L 4568.464844 3098.160156 L 4571.324219 3093.835938 C 4571.683594 3093.292969 4568.707031 3093.792969 4568.121094 3093.980469 L 4495.667969 3155.320312 L 4473.828125 3171.488281 L 4433.183594 3202.898438 L 4393.726562 3231.832031 C 4387.402344 3236.46875 4379.023438 3247.03125 4377.625 3254.648438 C 4371.925781 3285.667969 4380.855469 3287.261719 4389.460938 3298.519531 L 4408.296875 3323.164062 C 4420.3125 3327.390625 4428.308594 3333.378906 4438.273438 3339.867188 L 4470.027344 3360.539062 C 4479.15625 3366.480469 4488.085938 3379.605469 4488.015625 3390.65625 C 4487.71875 3437.203125 4386.710938 3455.839844 4318.949219 3427.367188 C 4303.976562 3421.074219 4289.589844 3415.371094 4276.761719 3405.210938 L 4264.445312 3383.5 C 4255.089844 3373.828125 4239.734375 3363.777344 4226.601562 3362.683594 C 4217.558594 3361.929688 4211.492188 3362.148438 4203.296875 3359.210938 C 4172.773438 3348.273438 4144.546875 3333.902344 4122.15625 3309.871094 L 4121.355469 3284.835938 L 4134.738281 3266.484375 C 4150.214844 3234.441406 4175.019531 3178.703125 4205.910156 3173.746094 L 4224.53125 3174.574219 C 4249.398438 3167.21875 4253.449219 3139.046875 4281.484375 3121.84375 C 4303.363281 3108.421875 4320.183594 3091.628906 4337.257812 3072.933594 L 4357.5 3055.15625 L 4417.246094 2995.15625 L 4446.429688 2958.242188 C 4458.628906 2942.8125 4473.410156 2931.109375 4488.851562 2918.722656 L 4533.351562 2883.023438 C 4544.296875 2874.246094 4561.285156 2867.097656 4565.914062 2852.421875 C 4570.605469 2837.550781 4570.5625 2817.738281 4567.492188 2802.503906 C 4564.808594 2789.199219 4557.746094 2776.851562 4551.128906 2765.097656 C 4526.324219 2721.046875 4507.492188 2675.75 4493.683594 2626.953125 C 4490.6875 2616.351562 4487.699219 2605.636719 4482.25 2596.015625 L 4425.25 2495.378906 C 4412.09375 2472.148438 4403.140625 2449.878906 4396.148438 2424.128906 C 4387.800781 2393.382812 4380.816406 2363.890625 4382.828125 2331.203125 L 4381.851562 2307.851562 L 4393.105469 2312.179688 C 4394.429688 2312.6875 4398.34375 2309.886719 4398.09375 2308.484375 L 4397.175781 2303.375 C 4380.0625 2293.523438 4372.070312 2277.050781 4368.238281 2258.230469 L 4362.128906 2228.21875 C 4358.570312 2210.722656 4355.253906 2193.59375 4356.757812 2175.460938 C 4357.847656 2162.308594 4353.441406 2152.972656 4346.332031 2142.378906 L 4311.855469 2090.992188 C 4303.484375 2078.515625 4295.167969 2066.730469 4283.992188 2056.828125 L 4261.3125 2036.726562 L 4270.855469 2027.019531 L 4267.675781 2024.269531 L 4253.394531 2035.542969 L 4177.695312 2091.824219 L 4119.796875 2135.140625 L 4119.878906 2117.523438 C 4111.480469 2120.808594 4112.445312 2127.480469 4114.175781 2136.734375 L 4087.917969 2144.042969 C 4076.503906 2147.21875 4061.644531 2151.132812 4050.011719 2146.738281 C 4023.179688 2136.601562 4009.238281 2093.761719 4002.640625 2064.019531 L 3996.945312 2038.355469 L 3983.050781 1980.496094 L 3974.867188 1934.796875 L 3970.902344 1908.855469 C 3969.8125 1885.148438 3967.003906 1863.410156 3962.570312 1840.007812 L 3954.9375 1799.746094 C 3952.910156 1789.046875 3939.964844 1783.101562 3933.714844 1775.617188 L 3912.675781 1750.421875 C 3901.589844 1737.148438 3900.375 1720.726562 3910.222656 1706.183594 L 3912.757812 1688.96875 L 3923.71875 1663.6875 C 3926.8125 1656.554688 3931.746094 1647.925781 3930.730469 1640.121094 C 3929.214844 1628.523438 3928.597656 1616.703125 3939.207031 1608.65625 L 3960.289062 1601.535156 L 3965.570312 1561.917969 L 3970.511719 1522.757812 L 3978.867188 1493.621094 C 3984.320312 1445.355469 3981.414062 1398.175781 3980.113281 1349.914062 L 3975.59375 1320.203125 L 3969.769531 1287.796875 L 3957.996094 1231.609375 L 3950.855469 1195.09375 L 3945.058594 1153.304688 C 3941.667969 1128.871094 3941.734375 1103.207031 3945.167969 1078.769531 L 3951.472656 1033.847656 C 3956.28125 999.625 3967.476562 967.222656 3985.429688 938.246094 C 3995.183594 922.496094 4008.589844 910.367188 4024.761719 903.726562 C 4051.585938 892.710938 4078.046875 896.941406 4099.722656 915.902344 C 4120.578125 934.140625 4137.671875 956.949219 4144.734375 984.367188 L 4159.082031 1040.085938 C 4168.941406 1097.851562 4165.75 1155.210938 4151.367188 1211.535156 C 4130.292969 1294.058594 4081.710938 1330.460938 4061.652344 1381.957031 L 4048.285156 1416.269531 L 4040.152344 1438.289062 L 4033.449219 1456.773438 L 4027.757812 1481.925781 L 4022.03125 1508.015625 C 4019.621094 1540.691406 4015.261719 1571.078125 4009.03125 1603.261719 L 4006.773438 1633.378906 C 4006.179688 1641.300781 4006.347656 1647.4375 4011.59375 1653.207031 C 4032.230469 1675.914062 4037.964844 1712.949219 4027.902344 1740.539062 C 4026.171875 1745.28125 4026.425781 1753.726562 4025.816406 1759.363281 C 4023.871094 1777.351562 4027.710938 1792.675781 4030.882812 1809.769531 L 4036.847656 1841.917969 L 4045.5 1873.722656 C 4055.140625 1909.171875 4070.226562 1941.859375 4089.832031 1972.886719 C 4091.113281 1974.910156 4095.941406 1977.859375 4098.058594 1977.296875 C 4100.175781 1976.734375 4104.667969 1973.976562 4106.003906 1972.101562 L 4164.945312 1889.1875 L 4210.753906 1824.988281 C 4224.429688 1805.824219 4238.300781 1787.988281 4256.164062 1772.46875 C 4259.726562 1769.371094 4267.488281 1763.289062 4266.230469 1758.742188 C 4264.425781 1752.207031 4259.863281 1745.550781 4259.9375 1739.367188 C 4260.121094 1724.640625 4273.363281 1715.621094 4274.839844 1705.292969 C 4253.746094 1697.917969 4238.703125 1687.105469 4220.132812 1676.800781 C 4178.730469 1653.835938 4147.996094 1615.777344 4140.519531 1567.660156 C 4143.140625 1541.484375 4153.863281 1518.464844 4168.992188 1497.292969 C 4184.789062 1470.285156 4205.207031 1447.128906 4230.9375 1429.511719 C 4238.734375 1424.175781 4247.472656 1424.777344 4253.933594 1431.140625 L 4273.179688 1450.089844 C 4296.828125 1449.734375 4318.371094 1452.554688 4340.902344 1457.59375 C 4364.492188 1462.867188 4354.894531 1480.1875 4380.671875 1484.460938 L 4420.4375 1491.050781 C 4426.65625 1492.082031 4424.027344 1504.746094 4423.8125 1509.53125 C 4423.523438 1515.925781 4434.015625 1521.125 4437.210938 1525.304688 C 4443.152344 1533.078125 4446.613281 1538.804688 4456.328125 1544.074219 L 4471.933594 1526.308594 L 4507.183594 1489.675781 C 4515.054688 1481.496094 4516.777344 1467.566406 4520.796875 1457.382812 L 4529.953125 1434.167969 L 4540.691406 1405.386719 L 4546.925781 1381.882812 L 4556.605469 1296.957031 L 4570.585938 1251.261719 L 4595.070312 1195.367188 L 4610.753906 1157.175781 L 4619.925781 1124.40625 L 4626.726562 1099.199219 L 4632.992188 1077.046875 L 4644.148438 1029.308594 L 4654.40625 1031.375 L 4640.164062 1014.875 L 4611.808594 987.320312 C 4604.097656 979.828125 4597.261719 971.921875 4592.921875 962.117188 C 4583.050781 939.824219 4570.550781 920.765625 4555.699219 901.40625 C 4553.050781 897.960938 4551.449219 890.988281 4551.488281 887.613281 L 4563.636719 885.996094 Z M 4573.097656 870.007812 "/>
<path style=" stroke:none;fill-rule:nonzero;fill:rgb(0%,0%,0%);fill-opacity:1;" d="M 2386.003906 2560.996094 L 2386 2559.261719 L 2394.042969 2557.210938 L 2540.519531 2557.53125 C 2579.050781 2561.175781 2601.210938 2588.359375 2602.539062 2625.285156 C 2603.960938 2664.675781 2578.878906 2698.710938 2537.257812 2699.054688 L 2459.667969 2699.699219 L 2459.734375 2663.140625 L 2533.6875 2663.164062 C 2551.84375 2663.167969 2564.957031 2652.109375 2567.640625 2634.808594 C 2569.332031 2623.914062 2567.613281 2612.726562 2560.300781 2604.085938 C 2554.816406 2597.605469 2544.5625 2592.652344 2533.929688 2592.679688 L 2422.054688 2592.949219 L 2421.972656 2804.757812 L 2388.136719 2805.246094 Z M 2386.003906 2560.996094 "/>
<path style=" stroke:none;fill-rule:nonzero;fill:rgb(0%,0%,0%);fill-opacity:1;" d="M 3565.675781 2418.246094 C 3583.585938 2395.695312 3590.132812 2368.152344 3585.066406 2339.882812 C 3579.820312 2306.453125 3555.347656 2273.097656 3519.570312 2269.710938 C 3485.9375 2266.523438 3453.445312 2269.386719 3418.980469 2268.355469 L 3418.96875 2445.328125 L 3507.546875 2445.386719 C 3530.464844 2445.402344 3550.242188 2435.832031 3565.675781 2418.246094 M 3586.617188 2447.03125 C 3567.183594 2469.53125 3542.742188 2481.230469 3513.375 2481.382812 L 3385.472656 2482.050781 L 3385.539062 2232.300781 L 3499.484375 2231.558594 C 3549.925781 2231.230469 3593.300781 2257.738281 3612.554688 2304.941406 C 3631.828125 2352.453125 3622.328125 2408.570312 3586.617188 2447.03125 "/>
<path style=" stroke:none;fill-rule:nonzero;fill:rgb(0%,0%,0%);fill-opacity:1;" d="M 3932.210938 2702.355469 L 3876.410156 2703.09375 L 3876.4375 2666.316406 L 3957.246094 2665.675781 C 3977.832031 2665.511719 3991.238281 2650.335938 3993.003906 2631.734375 C 3994.546875 2615.496094 3982.960938 2594.03125 3963.09375 2593.898438 L 3839.253906 2593.082031 L 3839.296875 2804.914062 L 3804.191406 2805.535156 L 3803.871094 2557.605469 L 3962.394531 2558.175781 C 3980.769531 2558.242188 3997 2567.386719 4009.570312 2578.664062 C 4025.234375 2597.839844 4031.175781 2620.816406 4026.964844 2644.714844 C 4021.96875 2673.082031 4002.472656 2694.164062 3973.179688 2699.375 C 3972.964844 2703.671875 3974.359375 2708.414062 3976.429688 2712.109375 L 4022.296875 2804.359375 L 3982.390625 2805.414062 Z M 3932.210938 2702.355469 "/>
<path style=" stroke:none;fill-rule:nonzero;fill:rgb(0%,0%,0%);fill-opacity:1;" d="M 2650.722656 2377.371094 L 2594.789062 2378.046875 L 2594.574219 2342.566406 C 2647.804688 2338.75 2714.757812 2358.238281 2711.894531 2298.980469 C 2711.21875 2283.230469 2696.523438 2268.695312 2680.035156 2268.671875 L 2556.75 2268.519531 L 2556.40625 2482.140625 L 2521.226562 2481.742188 L 2521.480469 2232.097656 L 2671.769531 2231.824219 C 2694.476562 2231.785156 2714.367188 2239.507812 2730.210938 2255.21875 C 2752.027344 2282.597656 2753.832031 2321.9375 2733.257812 2350.6875 C 2722.902344 2365.164062 2706.109375 2371.433594 2689.429688 2377.144531 L 2710.925781 2420.0625 L 2741.46875 2481.035156 L 2701.285156 2482.089844 Z M 2650.722656 2377.371094 "/>
<path style=" stroke:none;fill-rule:nonzero;fill:rgb(0%,0%,0%);fill-opacity:1;" d="M 3060.808594 2702.054688 L 3004.527344 2702.789062 L 3004.441406 2666.699219 L 3077.878906 2666.105469 C 3092.347656 2665.988281 3109.105469 2661.855469 3116.316406 2647.707031 C 3120.898438 2638.714844 3119.683594 2626.164062 3119.074219 2615.863281 C 3113.785156 2603.34375 3102.300781 2593.089844 3087.542969 2593.046875 L 2967.203125 2592.691406 L 2966.78125 2804.511719 L 2931.164062 2804.632812 L 2931.410156 2557.300781 L 3077.753906 2557.375 C 3090.484375 2557.378906 3103.175781 2560.527344 3115.019531 2563.605469 C 3143.398438 2576.550781 3157.535156 2604.714844 3155.738281 2635.210938 C 3153.789062 2668.320312 3134.027344 2693.175781 3098.769531 2700.128906 L 3139.308594 2783.601562 L 3149.867188 2804.261719 L 3109.917969 2804.925781 L 3100.050781 2784.699219 Z M 3060.808594 2702.054688 "/>
<path style=" stroke:none;fill-rule:nonzero;fill:rgb(0%,0%,0%);fill-opacity:1;" d="M 3686.523438 2633.574219 C 3670.152344 2605.734375 3643.984375 2591.175781 3613.828125 2586.710938 L 3585.789062 2587.085938 C 3549.75 2592.160156 3520.417969 2615.546875 3509.089844 2647.117188 C 3496.253906 2682.890625 3503.753906 2720.515625 3530.464844 2745.976562 C 3575.5625 2788.96875 3648.65625 2782.429688 3681.832031 2733.207031 C 3701.921875 2703.402344 3704.851562 2664.753906 3686.523438 2633.574219 M 3596.792969 2810.628906 C 3558.5625 2809.511719 3527.484375 2794.539062 3502.722656 2767.859375 C 3473.984375 2736.890625 3461.664062 2690.574219 3471.09375 2650.011719 C 3488.359375 2575.761719 3569.269531 2533.695312 3640.753906 2555.757812 C 3704.886719 2575.550781 3743.355469 2636.671875 3731.847656 2703.710938 C 3720.929688 2767.300781 3662.472656 2812.546875 3596.792969 2810.628906 "/>
<path style=" stroke:none;fill-rule:nonzero;fill:rgb(0%,0%,0%);fill-opacity:1;" d="M 4146.636719 2482 L 3946.394531 2481.890625 C 3942.65625 2423.464844 3964.253906 2354.035156 4023.5625 2339.527344 L 4084.359375 2330.164062 C 4101.203125 2327.570312 4115.742188 2311.890625 4110.101562 2294.195312 C 4106.519531 2282.96875 4093.828125 2275.023438 4082.59375 2272.390625 C 4043.050781 2263.125 4003.304688 2270.308594 3969.039062 2294.589844 L 3954.171875 2260.890625 C 3956.796875 2255.425781 3963.523438 2251.882812 3968.609375 2248.847656 C 3990.140625 2235.988281 4011.605469 2229.308594 4036.601562 2228.195312 C 4077.511719 2226.375 4124.113281 2234.898438 4141.277344 2272.953125 C 4153.785156 2300.675781 4144.726562 2333.011719 4122.699219 2352.324219 C 4106.910156 2366.164062 4088.828125 2371.453125 4068.5 2374.480469 L 4037.4375 2379.113281 C 4004.136719 2384.078125 3993.644531 2406.941406 3985.269531 2439.652344 L 4017.515625 2441.203125 L 4147.292969 2441.210938 Z M 4146.636719 2482 "/>
<path style=" stroke:none;fill-rule:nonzero;fill:rgb(0%,0%,0%);fill-opacity:1;" d="M 3233.257812 2363.4375 L 3198.546875 2286.394531 C 3198.152344 2282.273438 3195.714844 2278.183594 3192.023438 2277.066406 L 3165.75 2337.359375 L 3154.773438 2363.585938 Z M 3286.597656 2482.660156 L 3249.191406 2399.402344 L 3137.351562 2399.679688 L 3099.832031 2481.898438 L 3061.25 2481.410156 L 3174.386719 2232.148438 L 3214.402344 2232.339844 L 3271.703125 2361.117188 L 3325.304688 2480.589844 Z M 3286.597656 2482.660156 "/>
<path style=" stroke:none;fill-rule:nonzero;fill:rgb(0%,0%,0%);fill-opacity:1;" d="M 2855.679688 2445.429688 L 3031.671875 2445.527344 L 3031.21875 2482.015625 L 2819.34375 2481.960938 L 2819.433594 2232.164062 L 3025.441406 2231.851562 L 3025.394531 2268.667969 L 2855.988281 2268.761719 Z M 2855.679688 2445.429688 "/>
<path style=" stroke:none;fill-rule:nonzero;fill:rgb(0%,0%,0%);fill-opacity:1;" d="M 2698.390625 2769.046875 L 2871.757812 2769.390625 L 2871.675781 2805.007812 L 2661.980469 2804.578125 L 2661.992188 2557.351562 L 2865.71875 2557.320312 L 2865.703125 2592.664062 L 2698.617188 2592.980469 Z M 2698.390625 2769.046875 "/>
<path style=" stroke:none;fill-rule:nonzero;fill:rgb(0%,0%,0%);fill-opacity:1;" d="M 4175.367188 2725.925781 L 4122.808594 2631.738281 L 4121.84375 2804.464844 L 4086.773438 2804.960938 L 4086.859375 2558.0625 L 4122.765625 2558.113281 L 4228.125 2748.464844 L 4207.917969 2784.105469 Z M 4175.367188 2725.925781 "/>
<path style=" stroke:none;fill-rule:nonzero;fill:rgb(0%,0%,0%);fill-opacity:1;" d="M 3891.429688 2233.492188 L 3789.527344 2373.582031 L 3789.578125 2481.714844 L 3753.402344 2482.054688 L 3753.484375 2373.277344 L 3675.464844 2263.539062 L 3652.605469 2232.316406 L 3696.160156 2232.15625 L 3772.390625 2338.152344 L 3798.097656 2302 L 3848.335938 2231.710938 Z M 3891.429688 2233.492188 "/>
<path style=" stroke:none;fill-rule:nonzero;fill:rgb(0%,0%,0%);fill-opacity:1;" d="M 3257.871094 2592.503906 L 3257.53125 2804.085938 L 3222.339844 2805.066406 L 3222.277344 2557.386719 L 3424.367188 2557.3125 L 3424.539062 2592.710938 Z M 3257.871094 2592.503906 "/>
<path style=" stroke:none;fill-rule:nonzero;fill:rgb(0%,0%,0%);fill-opacity:1;" d="M 4295.871094 2632.78125 L 4249.722656 2710.558594 L 4230.019531 2673.042969 L 4277.816406 2589.78125 L 4296.261719 2557.65625 L 4331.945312 2557.980469 L 4331.980469 2804.550781 L 4296.070312 2805.019531 Z M 4295.871094 2632.78125 "/>
<path style=" stroke:none;fill-rule:nonzero;fill:rgb(0%,0%,0%);fill-opacity:1;" d="M 3394.867188 2698.941406 L 3295.054688 2699.132812 L 3294.117188 2662.3125 L 3395 2662.230469 Z M 3394.867188 2698.941406 "/>
<path style=" stroke:none;fill-rule:nonzero;fill:rgb(0%,0%,0%);fill-opacity:1;" d="M 2977.375 2369.214844 L 2893.058594 2369.695312 L 2893.023438 2334.199219 L 2977.796875 2334.265625 Z M 2977.375 2369.214844 "/>
<path style=" stroke:none;fill-rule:nonzero;fill:rgb(0%,0%,0%);fill-opacity:1;" d="M 2817.855469 2695.609375 L 2734.578125 2695.617188 L 2735.335938 2659.222656 L 2817.9375 2659.046875 Z M 2817.855469 2695.609375 "/>
<path style=" stroke:none;fill-rule:nonzero;fill:rgb(100%,100%,100%);fill-opacity:1;" d="M 4042.382812 1298.03125 C 4043.949219 1290.871094 4043.011719 1283.53125 4037.734375 1277.652344 Z M 4025.742188 1270.441406 C 4021.9375 1278.03125 4024.316406 1286.65625 4028.996094 1292.253906 Z M 4075.40625 1276.289062 L 4062.074219 1269.453125 L 4071.9375 1283.253906 C 4073.003906 1286.988281 4072.703125 1285.675781 4071.296875 1280.238281 L 4074.121094 1277.59375 Z M 4039.019531 1273.714844 L 4036.40625 1261.558594 C 4035.101562 1266.640625 4036.289062 1270.410156 4039.019531 1273.714844 M 4019.808594 1269.9375 L 4021.507812 1268.839844 L 4020.964844 1257.726562 L 4019.261719 1258.824219 Z M 4038.71875 1255.644531 L 4037.179688 1257.179688 L 4057.488281 1270.167969 C 4054.550781 1259.351562 4044.53125 1259.40625 4038.71875 1255.644531 M 4053.015625 1257.722656 L 4050.398438 1245.566406 C 4049.097656 1250.648438 4050.28125 1254.417969 4053.015625 1257.722656 M 4057.03125 1240.984375 L 4055.316406 1242.867188 C 4060.613281 1246.835938 4064.585938 1251.984375 4066.984375 1258.089844 C 4067.46875 1256.15625 4068.292969 1251.589844 4069.570312 1252.113281 L 4074.238281 1254.015625 L 4075.363281 1252.21875 Z M 4006.664062 1235.347656 L 4005.1875 1237.257812 L 4015.726562 1243.742188 L 4018.375 1256.710938 L 4020.683594 1246.523438 L 4035.527344 1257.140625 L 4037.925781 1253.980469 C 4034.605469 1251.15625 4030.886719 1249.339844 4026.492188 1246.800781 Z M 4064.773438 1231.734375 L 4062.203125 1233.566406 L 4066.695312 1242.625 Z M 4055.851562 1240.242188 L 4031.375 1225.785156 C 4036.984375 1233.046875 4051.195312 1242.683594 4048.597656 1243.03125 L 4054.207031 1242.285156 Z M 4066.636719 1203.417969 L 4064.917969 1205.417969 C 4067.4375 1208.144531 4071.183594 1210.734375 4073.953125 1210.996094 L 4075.710938 1208.546875 Z M 4102.453125 1206.863281 L 4093.808594 1201.058594 C 4094.210938 1204.53125 4095.046875 1207.667969 4096.558594 1207.503906 Z M 3990.828125 1200.203125 L 3989.398438 1201.074219 L 4007.363281 1219.003906 C 4008.304688 1216.128906 4009.148438 1213.535156 4008.816406 1214.527344 C 4008.058594 1216.820312 4026.886719 1219.558594 4030.664062 1241.84375 L 4029.195312 1223.195312 L 4008.945312 1212.054688 Z M 4088.140625 1208.417969 C 4089.667969 1201.542969 4086.09375 1195.074219 4078.648438 1192.113281 Z M 4065.234375 1202.386719 L 4039.714844 1186.878906 C 4042.03125 1192.777344 4046.660156 1195.195312 4051.503906 1198.007812 L 4063.660156 1205.070312 Z M 4074.78125 1194.152344 L 4074.476562 1189.976562 L 4055.613281 1178.203125 L 4055.253906 1181.074219 Z M 3984.757812 1171.917969 L 3983.230469 1173.582031 L 4000.214844 1186.21875 C 4000.964844 1186.777344 4001.628906 1191.835938 4002.417969 1191.328125 C 4003.207031 1190.824219 4007.027344 1189.25 4007.753906 1189.839844 L 4020.414062 1200.140625 C 4022.730469 1201.113281 4028.375 1202.832031 4030.242188 1204.5 L 4040.730469 1213.855469 C 4049.820312 1215.105469 4063.148438 1223.429688 4062.511719 1231.746094 L 4064.546875 1230.460938 L 4064.582031 1222.808594 L 3998.339844 1180.914062 Z M 4106.070312 1192.175781 L 4070.554688 1168.007812 C 4069.785156 1168.425781 4071.671875 1173.132812 4073.027344 1174.078125 L 4096.171875 1190.199219 C 4098.066406 1191.515625 4104.359375 1192.796875 4106.070312 1192.175781 M 4094.925781 1180.214844 L 4095.035156 1165.84375 L 4087.742188 1163.566406 Z M 4050.089844 1178.480469 L 4053.691406 1176.582031 L 4033.800781 1163.929688 L 4033.363281 1166.871094 Z M 4002.664062 1163.640625 L 4001.160156 1165.332031 L 4030.601562 1184.558594 L 4032.789062 1187.90625 C 4033.445312 1188.910156 4037.417969 1186.398438 4038.242188 1185.136719 L 4025.667969 1177.414062 Z M 4058.699219 1161.578125 L 4057.421875 1164.296875 C 4059.355469 1166.117188 4062.808594 1168.882812 4065.035156 1170.109375 C 4064.457031 1165.804688 4061.648438 1163.261719 4058.699219 1161.578125 M 4057.246094 1158.855469 L 4046.351562 1155.78125 L 4055.792969 1162.765625 Z M 4098.570312 1153.640625 L 4097.632812 1155.589844 L 4113.308594 1166.199219 C 4110.617188 1158.96875 4104.636719 1155.886719 4098.570312 1153.640625 M 4083.257812 1161.246094 L 4071.046875 1151.410156 C 4065.503906 1152.570312 4068.890625 1154.210938 4071.613281 1154.871094 C 4075.597656 1159.988281 4079.257812 1162.660156 4083.257812 1161.246094 M 4032.070312 1161.515625 L 4013.863281 1151.734375 L 4028.261719 1165.851562 Z M 4124.191406 1156.316406 C 4123.429688 1151.621094 4120.699219 1149.691406 4117.019531 1150.386719 Z M 3980.792969 1149.457031 L 3979.464844 1151.605469 C 3983.898438 1155.960938 3993.96875 1161.417969 3999.835938 1164.167969 L 4001.503906 1162.5625 Z M 4088.796875 1147.363281 L 4087.824219 1149.632812 L 4096.242188 1154.085938 L 4096.8125 1152.527344 Z M 4036.664062 1147.570312 L 4035.242188 1149.324219 C 4037.050781 1152.164062 4038.910156 1153.699219 4043.761719 1153.640625 Z M 4065.042969 1151.585938 C 4065.300781 1147.207031 4060.777344 1143.179688 4057.351562 1144.625 Z M 4009.515625 1154.734375 C 4013.332031 1147.25 4006.40625 1143.234375 4001.621094 1144.4375 Z M 4116.109375 1148.015625 L 4106.773438 1140.515625 L 4109.949219 1152.101562 Z M 4086.8125 1145.765625 C 4085.320312 1144.5625 4082.339844 1143.023438 4078.828125 1141.535156 C 4081.175781 1145.976562 4082.917969 1147.328125 4085.742188 1148.53125 Z M 4024.578125 1139.820312 L 4023.058594 1141.4375 C 4025.886719 1144.507812 4030.023438 1147.125 4034.003906 1148.417969 L 4035.199219 1146.792969 Z M 4044.601562 1135.6875 L 4044.804688 1136.640625 L 4053.375 1149.496094 L 4052.085938 1140.269531 C 4051.753906 1137.898438 4046.710938 1135.96875 4044.601562 1135.6875 M 3990.742188 1135.628906 L 3989.058594 1137.363281 L 3999.132812 1144.359375 C 3997.109375 1140.585938 3993.945312 1137.65625 3990.742188 1135.628906 M 4119.035156 1133.273438 L 4117.152344 1135.167969 C 4120.164062 1138.945312 4123.660156 1142.199219 4129.757812 1143.933594 Z M 4102.175781 1149.507812 L 4102.128906 1141.308594 C 4101.679688 1139.894531 4100.152344 1136.082031 4098.746094 1135.742188 L 4092.878906 1134.339844 Z M 4073.503906 1146.933594 L 4074.308594 1137.527344 C 4074.453125 1135.875 4069.28125 1134.273438 4067.417969 1134.070312 Z M 4036.746094 1129.421875 L 4035.753906 1131.613281 L 4042.257812 1135.90625 L 4043.285156 1134.648438 Z M 4082.921875 1127.289062 L 4081.28125 1129.308594 L 4090.152344 1133.492188 C 4086.78125 1129.132812 4085.257812 1128.28125 4082.921875 1127.289062 M 4117.636719 1132.417969 L 4106.730469 1126.011719 C 4109.941406 1131.742188 4112.636719 1132.882812 4116.105469 1134.175781 Z M 4065.871094 1129.773438 L 4054.542969 1126.300781 L 4062.613281 1138.480469 Z M 4035.074219 1128.171875 L 4025.957031 1121.378906 C 4025.964844 1125.691406 4030.128906 1129.710938 4033.878906 1130.378906 Z M 4052.285156 1126.109375 C 4051.761719 1120.828125 4047.570312 1118.300781 4044.226562 1121.871094 Z M 4081.472656 1126.347656 L 4069.035156 1118.222656 C 4072.253906 1123.910156 4076.207031 1126.167969 4080.148438 1128.144531 Z M 3993.382812 1117.941406 L 3991.4375 1118.84375 L 3999.804688 1125.972656 C 4003.246094 1128.90625 4007.429688 1131.023438 4011.714844 1133.574219 L 4022.351562 1139.917969 L 4023.496094 1138.0625 Z M 4101.765625 1125.050781 L 4102.8125 1121.925781 L 4089.054688 1112.886719 L 4087.175781 1115.199219 Z M 4020.390625 1123.976562 C 4022.191406 1116.925781 4018.125 1113.957031 4013 1114.46875 Z M 3991.597656 1116.460938 L 3981.070312 1111.566406 C 3984.363281 1115.773438 3986.789062 1117.351562 3989.996094 1118.433594 Z M 4129.855469 1125.441406 C 4122.449219 1118.285156 4116.03125 1113.980469 4105.53125 1107.890625 L 4108.730469 1115.425781 C 4109.46875 1117.164062 4113.558594 1116.875 4116.0625 1117.109375 C 4119.054688 1121.613281 4123.183594 1126.050781 4129.855469 1125.441406 M 4067.664062 1117.167969 L 4055.8125 1106.410156 L 4059.101562 1115.890625 C 4059.695312 1117.605469 4064.574219 1117.496094 4067.664062 1117.167969 M 4009.921875 1111.054688 L 4001.820312 1105.753906 C 4001.84375 1107.917969 4002.992188 1112.144531 4004.5625 1111.898438 Z M 4124.660156 1103.535156 L 4123.476562 1106.140625 L 4131.851562 1110.089844 Z M 4070.53125 1101.984375 L 4070.546875 1103.601562 L 4081.390625 1116.304688 C 4083.15625 1108.46875 4076.847656 1103.328125 4070.53125 1101.984375 M 4042.910156 1117.832031 L 4026.082031 1101.914062 L 4025.085938 1107.664062 Z M 4123.238281 1101.679688 C 4122.320312 1100.484375 4118.6875 1097.191406 4117.871094 1098.484375 C 4116.851562 1100.101562 4120.417969 1103.6875 4121.996094 1104.03125 Z M 4090.785156 1097.316406 L 4089.191406 1099.195312 C 4092.597656 1103.1875 4096.929688 1106.660156 4103.984375 1107.597656 Z M 4069.175781 1099.289062 L 4060.691406 1096.082031 L 4067.898438 1102.390625 Z M 4018.082031 1102.789062 C 4018.894531 1102.097656 4019 1096.976562 4017.453125 1096.871094 L 4011.066406 1096.425781 Z M 4080.703125 1091.367188 L 4079.484375 1092.925781 L 4088.179688 1098.003906 L 4089.539062 1096.359375 Z M 4050.089844 1108.621094 L 4050.785156 1105.675781 L 4032.941406 1091.226562 L 4031.175781 1093.160156 Z M 4111.292969 1104.34375 C 4111.785156 1103.195312 4111.550781 1096.785156 4110.710938 1094.144531 C 4110.066406 1092.132812 4106.351562 1090.625 4103.207031 1089.765625 Z M 4052.714844 1089.691406 L 4052.398438 1090.84375 L 4059.320312 1104.164062 L 4059.359375 1093.402344 C 4059.367188 1091.25 4054.601562 1089.914062 4052.714844 1089.691406 M 4091.792969 1082.605469 C 4092.058594 1084.070312 4093.429688 1088.761719 4094.191406 1088.128906 L 4096.769531 1085.992188 C 4097.539062 1085.351562 4096.40625 1083.46875 4095.640625 1082.820312 C 4095.128906 1082.390625 4091.660156 1081.875 4091.792969 1082.605469 M 4028.382812 1093.011719 C 4028.109375 1085.605469 4023.589844 1082.710938 4017.0625 1082.265625 Z M 4123.796875 1088.777344 L 4124.765625 1086.015625 L 4113.003906 1075.183594 L 4111.257812 1077.035156 Z M 4079.632812 1090.523438 L 4061.464844 1076.320312 C 4063.21875 1086.121094 4075.699219 1084.457031 4076.402344 1097.96875 L 4078.390625 1091.929688 Z M 4032.847656 1073.238281 L 4031.542969 1075.402344 L 4039.285156 1082.210938 L 4049.929688 1090.304688 L 4051.269531 1088.449219 Z M 4001.273438 1087.101562 L 3976.746094 1073.265625 C 3982.242188 1082.582031 3992.644531 1087.132812 4001.273438 1087.101562 M 4085.71875 1081.339844 C 4087.578125 1076.132812 4084.152344 1072.429688 4077.550781 1072.3125 Z M 4013.832031 1080.90625 C 4009.621094 1075.183594 4007.398438 1073.808594 4003.085938 1071.828125 C 4004.757812 1077.28125 4009.378906 1080.875 4013.832031 1080.90625 M 4050.835938 1069.578125 L 4049.289062 1071.707031 L 4056.503906 1078.773438 C 4057.300781 1074.292969 4054.363281 1071.207031 4050.835938 1069.578125 M 4106.769531 1078.167969 C 4108.003906 1070.925781 4102.695312 1068.625 4098.273438 1069.085938 Z M 4022.726562 1067.390625 L 4021.34375 1069.234375 L 4030.171875 1074.21875 L 4031.617188 1072.328125 Z M 4071.835938 1072.136719 C 4072.550781 1072.9375 4073.707031 1068.160156 4072.691406 1067.804688 L 4068.222656 1066.222656 C 4067.222656 1065.867188 4068.570312 1068.480469 4069.285156 1069.28125 Z M 4088.609375 1061.859375 L 4087.636719 1062.996094 L 4096.933594 1071.871094 C 4097.460938 1068.765625 4097.035156 1064.324219 4095.078125 1063.753906 Z M 4021.53125 1066.425781 C 4018.351562 1063.855469 4014.65625 1061.40625 4008.816406 1060.015625 L 4020.039062 1068.429688 Z M 3986.105469 1066.148438 C 3986.871094 1065.746094 3990.011719 1062.066406 3988.660156 1061.714844 L 3981.320312 1059.820312 Z M 4066.117188 1063.53125 L 4053.175781 1053.980469 C 4055.726562 1060.671875 4059.296875 1064.136719 4066.117188 1063.53125 M 4000.925781 1053.21875 L 4000.230469 1056.144531 C 4001.746094 1057.679688 4005.132812 1058.65625 4008.777344 1058.628906 Z M 4087.011719 1060.429688 L 4076.816406 1051.339844 C 4078.425781 1057.5 4081.894531 1060.898438 4086.078125 1062.183594 Z M 4049.070312 1068.324219 L 4025.964844 1051.878906 L 4025.4375 1054.820312 L 4047.648438 1070.796875 Z M 4066.800781 1045.292969 L 4065.945312 1047.871094 L 4074.574219 1054.84375 C 4074.496094 1052.660156 4073.851562 1048.675781 4072.210938 1047.890625 Z M 4051.878906 1055.199219 C 4049.730469 1051.070312 4046.085938 1047.277344 4041.980469 1044.964844 C 4041.835938 1051.398438 4045.648438 1055.375 4051.878906 1055.199219 M 4023.464844 1050.8125 L 4015.007812 1043.296875 C 4013.972656 1045.160156 4014.390625 1051.03125 4016.078125 1050.988281 Z M 3998.972656 1052.054688 L 3984.132812 1041.21875 L 3984.886719 1047.226562 C 3985.015625 1048.257812 3988.21875 1049.023438 3989.207031 1049.519531 L 3998.148438 1054.011719 Z M 4052.882812 1035.203125 L 4051.363281 1038.097656 L 4063.808594 1046.699219 L 4065.097656 1044.050781 Z M 4011.878906 1042.9375 L 4001.371094 1036.050781 L 4004.242188 1048.027344 C 4004.925781 1046.234375 4005.582031 1043.179688 4006.570312 1043.144531 Z M 4123.535156 1046.277344 L 4099.617188 1029.503906 C 4104.769531 1037.335938 4116.21875 1043.484375 4121.460938 1048.175781 Z M 4044.683594 1029.542969 L 4043.699219 1031.582031 L 4050.1875 1036.25 L 4051.257812 1034.078125 Z M 3991.550781 1031.105469 C 3991.445312 1032.453125 3996.316406 1037.34375 3996.191406 1035.964844 L 3995.863281 1032.3125 C 3995.773438 1031.304688 3991.625 1030.09375 3991.550781 1031.105469 M 4089.605469 1042.574219 L 4069.507812 1027.621094 C 4072.679688 1038.449219 4081.761719 1039.949219 4088.246094 1043.921875 Z M 4035.703125 1045.75 C 4035.59375 1043.351562 4033.640625 1039.175781 4031.785156 1037.964844 L 4015.554688 1027.375 C 4016.960938 1030.941406 4019.863281 1033.542969 4023.128906 1036.058594 Z M 4042.640625 1027.796875 C 4041.234375 1026.597656 4038.160156 1025.046875 4034.976562 1023.835938 L 4041.996094 1030.359375 Z M 4002.617188 1019.804688 L 4001.207031 1021.484375 L 4011.480469 1028.667969 C 4010.300781 1023.433594 4006.425781 1021.761719 4002.617188 1019.804688 M 4001.433594 1018.652344 L 3992.101562 1011.09375 C 3992.46875 1016.039062 3996.167969 1019.148438 4000.085938 1020.121094 Z M 4014.960938 1009.277344 L 4013.714844 1010.449219 L 4029.636719 1024.140625 C 4030.40625 1015.480469 4020.675781 1012.023438 4014.960938 1009.277344 M 4093.53125 1036.832031 C 4094.882812 1035.140625 4098.488281 1027.449219 4096.347656 1026.226562 L 4088.078125 1021.515625 L 4063.035156 1002.78125 L 4061.726562 1005.238281 L 4083.324219 1021.628906 C 4089.335938 1026.1875 4091.027344 1026.886719 4093.53125 1036.832031 M 4067.667969 1027.726562 L 4051.4375 1015.566406 C 4044.910156 1010.679688 4039.386719 1004.546875 4030.867188 1001.464844 C 4038.628906 1011.667969 4056.140625 1023.917969 4067.667969 1027.726562 M 4030.472656 1000.699219 L 4017.171875 990.875 L 4024.75 1004.421875 Z M 4089.542969 1000.675781 L 4069.414062 987.34375 C 4073.535156 994.472656 4082.226562 1000.03125 4087.59375 1002.332031 Z M 4038.632812 985.796875 L 4037.148438 987.421875 L 4049.96875 997.511719 C 4053.238281 1000.085938 4055.359375 1001.820312 4059.632812 1003.957031 C 4057.1875 997.378906 4053.015625 995.210938 4047.496094 991.597656 Z M 4058.734375 979.648438 L 4057.339844 982.222656 L 4067.320312 990.183594 C 4066.644531 982.207031 4062.566406 981.285156 4058.734375 979.648438 M 4030.679688 979.585938 L 4028.496094 981.746094 L 4035.769531 986.78125 L 4037.320312 984.777344 Z M 4101.351562 985.039062 L 4090.34375 976.582031 L 4095.472656 994.738281 L 4097.492188 989.25 C 4097.84375 988.292969 4098.953125 987.117188 4099.625 986.433594 Z M 4016.929688 969.507812 L 4014.53125 972.027344 L 4027.832031 980.597656 L 4029.421875 978.675781 Z M 4057.132812 978.175781 C 4051.582031 973.089844 4046.34375 968.957031 4039.394531 965.375 C 4044.003906 972.726562 4049.863281 977.652344 4055.882812 980.484375 Z M 4088.4375 976.746094 L 4067.261719 963.253906 L 4079.421875 975.800781 L 4082.941406 979.863281 C 4083.695312 980.730469 4086.878906 978.496094 4088.4375 976.746094 M 4058.777344 955.5625 L 4057.960938 956.914062 C 4059.519531 959.84375 4061.066406 964.613281 4062.492188 969.667969 C 4062.679688 969.519531 4067.007812 962.886719 4065.320312 961.386719 Z M 4042.789062 945.507812 L 4041.449219 947.484375 C 4045.257812 950.824219 4051.371094 955.101562 4055.457031 957.085938 L 4057.308594 954.84375 Z M 4061.941406 945.949219 C 4063.796875 944.378906 4066.335938 941.878906 4065.511719 941.167969 L 4061.714844 937.902344 Z M 4041.699219 944.628906 L 4029.996094 935.152344 C 4031.105469 940.925781 4035.484375 944.160156 4040.148438 946.152344 Z M 4015.375 968.707031 L 4004.914062 961.394531 L 4010.097656 946.453125 L 4038.183594 968.304688 C 4030.542969 950.929688 4008.414062 951.382812 4014.78125 938.101562 C 4016.507812 934.5 4021.34375 934.5625 4027.664062 935.722656 L 4023.28125 930.839844 C 4029.53125 926.621094 4039.617188 916.195312 4049.605469 917.996094 C 4070.242188 921.71875 4094.46875 941.320312 4103.703125 961.160156 C 4109.125 972.808594 4118.40625 980.277344 4120.863281 1000.449219 L 4102.683594 985.960938 L 4101.285156 987.179688 L 4106.457031 994.671875 C 4121.941406 1004.835938 4127.894531 1008.367188 4129.367188 1029.039062 L 4112.367188 1016.765625 L 4090.699219 1001.472656 L 4088.953125 1003.476562 L 4098.738281 1010.699219 L 4126.160156 1031.066406 C 4132.960938 1036.117188 4135.601562 1043.671875 4133.164062 1051.878906 L 4124.398438 1047.902344 L 4122.953125 1049.515625 L 4133.816406 1059.988281 C 4135.234375 1063.058594 4135.644531 1068.242188 4135.769531 1075.898438 L 4121.652344 1065.542969 L 4091 1043.222656 L 4089.894531 1045.035156 C 4092.105469 1047.71875 4094.472656 1052.582031 4096.855469 1058.40625 L 4098.234375 1051.972656 L 4112.761719 1062.605469 L 4123.898438 1071.417969 L 4135.128906 1079.847656 C 4137.613281 1081.714844 4137.203125 1090.324219 4137.082031 1093.382812 L 4131.988281 1092.476562 C 4140.191406 1099.847656 4138.03125 1110.476562 4136.492188 1110.675781 L 4133.207031 1111.09375 L 4138.089844 1120.890625 C 4139.152344 1123.023438 4135.480469 1127.949219 4134.570312 1129.195312 C 4136.050781 1134.507812 4137.132812 1140.414062 4136.128906 1145.996094 L 4133.316406 1161.65625 L 4132.988281 1174.222656 L 4116.753906 1165.449219 L 4129.691406 1176.441406 C 4132.207031 1178.582031 4131.175781 1186.5 4127.804688 1188.316406 L 4099.164062 1169.242188 C 4109.347656 1187.378906 4136.78125 1187.511719 4125.019531 1204.113281 L 4107.050781 1191.679688 C 4109.25 1198.964844 4117.261719 1203.03125 4123.21875 1206.269531 C 4125.550781 1208.125 4124.09375 1216.574219 4122.535156 1218.015625 L 4104.835938 1209.367188 C 4108.96875 1217.003906 4120.09375 1217.375 4121.109375 1225.261719 C 4121.398438 1227.515625 4119.15625 1232.53125 4117.332031 1235.257812 L 4076.636719 1209.378906 L 4074.910156 1211.617188 L 4114.445312 1237.558594 C 4114.054688 1242.25 4112.386719 1247.796875 4110.519531 1252.167969 L 4096.222656 1243.097656 L 4067.90625 1225.414062 C 4071.980469 1233.777344 4080.765625 1237.722656 4088.753906 1242.421875 L 4100.339844 1249.238281 C 4103.554688 1251.128906 4108 1255.371094 4107.710938 1258.386719 C 4107.367188 1261.933594 4103.4375 1268.257812 4100.765625 1267.699219 L 4076.816406 1253.316406 L 4075.15625 1255.195312 L 4091.59375 1265.9375 C 4094.914062 1268.101562 4099.480469 1272.726562 4098.695312 1275.84375 C 4097.835938 1279.257812 4094.109375 1284.378906 4091.945312 1285.457031 L 4076.554688 1277.539062 L 4075.527344 1279.210938 L 4088.84375 1287.363281 C 4088.863281 1292.933594 4084.96875 1299.75 4080.578125 1302.414062 L 4073.964844 1298.664062 C 4073.992188 1302.972656 4071.066406 1310.199219 4068.53125 1309.414062 L 4059.816406 1306.714844 C 4058.644531 1308.984375 4051.097656 1313.328125 4048.3125 1311.652344 L 4026.746094 1298.65625 C 4017.441406 1293.046875 4012.003906 1285.035156 4007.203125 1275.691406 L 3989.527344 1241.253906 C 3987.5 1237.300781 3986.996094 1231.066406 3987.859375 1227.292969 L 4004.207031 1236.265625 L 4005.316406 1234.535156 C 3988.425781 1224.347656 3978.742188 1218.46875 3981.738281 1199.855469 L 3988.144531 1200.265625 L 3989.480469 1198.929688 C 3974.421875 1188.742188 3973.988281 1173.222656 3977.3125 1172.667969 L 3982.207031 1171.851562 L 3983.382812 1170.832031 L 3976.835938 1165.929688 C 3974.714844 1164.34375 3972.027344 1159.6875 3971.988281 1157.097656 C 3971.941406 1153.851562 3975.265625 1149.328125 3977.632812 1149.632812 L 3979.5625 1148.628906 C 3972.195312 1144.300781 3969.835938 1135.40625 3972.609375 1127.503906 L 3987.988281 1136.621094 L 3988.964844 1134.824219 C 3984.082031 1132.605469 3976.078125 1126.644531 3971.890625 1121.792969 C 3967.875 1117.140625 3971.917969 1109.34375 3973.773438 1106.902344 C 3971.730469 1103.316406 3970.574219 1096.675781 3972.039062 1091.101562 C 3980.746094 1096.570312 3983.796875 1099.511719 3992.199219 1101.796875 L 3971.722656 1086.558594 L 3974.464844 1059.429688 C 3974.550781 1058.585938 3979.355469 1057.460938 3978.800781 1056.808594 L 3975.585938 1053.035156 L 3987.453125 993.007812 L 4003.171875 1004.40625 L 4011.972656 1010.609375 L 4013.875 1008.269531 L 4002.835938 1000.414062 L 3989.242188 990.746094 L 3992.472656 978.832031 L 4011.25 987.703125 L 3996.941406 976.390625 C 3995.9375 975.203125 3994.082031 970.613281 3995.167969 969.496094 L 3999.988281 964.535156 L 4014.246094 970 Z M 4015.375 968.707031 "/>
<path style=" stroke:none;fill-rule:nonzero;fill:rgb(100%,100%,100%);fill-opacity:1;" d="M 4765.503906 2759.265625 C 4757.195312 2765.15625 4765.238281 2784.757812 4756.964844 2787.46875 L 4758.414062 2754.945312 L 4758.292969 2735.027344 L 4754.613281 2706.390625 L 4753.273438 2627.199219 L 4756.855469 2627.171875 L 4757.496094 2649.296875 L 4771.3125 2658.96875 L 4813.402344 2700.933594 C 4816.097656 2703.621094 4817.820312 2712.390625 4817.675781 2716.050781 C 4817.523438 2720.03125 4812.996094 2725.605469 4808.730469 2728.628906 Z M 4765.503906 2759.265625 "/>
<path style=" stroke:none;fill-rule:nonzero;fill:rgb(100%,100%,100%);fill-opacity:1;" d="M 4053.132812 1337.050781 C 4040 1368.886719 4027.828125 1395.714844 4011.078125 1425.6875 L 4005.320312 1317.550781 L 4030.363281 1330.417969 Z M 4053.132812 1337.050781 "/>
<path style=" stroke:none;fill-rule:nonzero;fill:rgb(100%,100%,100%);fill-opacity:1;" d="M 3565.675781 2418.246094 C 3550.242188 2435.832031 3530.464844 2445.402344 3507.546875 2445.386719 L 3418.96875 2445.328125 L 3418.980469 2268.355469 C 3453.445312 2269.386719 3485.9375 2266.523438 3519.570312 2269.710938 C 3555.347656 2273.097656 3579.820312 2306.453125 3585.066406 2339.882812 C 3590.132812 2368.152344 3583.585938 2395.695312 3565.675781 2418.246094 "/>
<path style=" stroke:none;fill-rule:nonzero;fill:rgb(100%,100%,100%);fill-opacity:1;" d="M 3686.523438 2633.574219 C 3704.851562 2664.753906 3701.921875 2703.402344 3681.832031 2733.207031 C 3648.65625 2782.429688 3575.5625 2788.96875 3530.464844 2745.976562 C 3503.753906 2720.515625 3496.253906 2682.890625 3509.089844 2647.117188 C 3520.417969 2615.546875 3549.75 2592.160156 3585.789062 2587.085938 L 3613.828125 2586.710938 C 3643.984375 2591.175781 3670.152344 2605.734375 3686.523438 2633.574219 "/>
<path style=" stroke:none;fill-rule:nonzero;fill:rgb(100%,100%,100%);fill-opacity:1;" d="M 3233.257812 2363.4375 L 3154.773438 2363.585938 L 3165.75 2337.359375 L 3192.023438 2277.066406 C 3195.714844 2278.183594 3198.152344 2282.273438 3198.546875 2286.394531 Z M 3233.257812 2363.4375 "/>
<path style=" stroke:none;fill-rule:nonzero;fill:rgb(0%,0%,0%);fill-opacity:1;" d="M 4093.53125 1036.832031 C 4091.027344 1026.886719 4089.335938 1026.1875 4083.324219 1021.628906 L 4061.726562 1005.238281 L 4063.035156 1002.78125 L 4088.078125 1021.515625 L 4096.34375 1026.226562 C 4098.488281 1027.449219 4094.878906 1035.140625 4093.53125 1036.832031 "/>
<path style=" stroke:none;fill-rule:nonzero;fill:rgb(0%,0%,0%);fill-opacity:1;" d="M 4106.070312 1192.175781 C 4104.359375 1192.796875 4098.066406 1191.519531 4096.171875 1190.199219 L 4073.027344 1174.078125 C 4071.671875 1173.132812 4069.785156 1168.425781 4070.554688 1168.011719 Z M 4106.070312 1192.175781 "/>
<path style=" stroke:none;fill-rule:nonzero;fill:rgb(0%,0%,0%);fill-opacity:1;" d="M 4067.667969 1027.726562 C 4056.140625 1023.917969 4038.628906 1011.667969 4030.867188 1001.464844 C 4039.386719 1004.546875 4044.910156 1010.679688 4051.433594 1015.566406 Z M 4067.667969 1027.726562 "/>
<path style=" stroke:none;fill-rule:nonzero;fill:rgb(0%,0%,0%);fill-opacity:1;" d="M 3989.996094 1118.433594 C 3986.789062 1117.351562 3984.363281 1115.773438 3981.070312 1111.566406 L 3991.597656 1116.460938 L 3993.382812 1117.941406 L 4023.496094 1138.0625 L 4024.578125 1139.816406 L 4035.199219 1146.792969 L 4036.664062 1147.566406 L 4043.761719 1153.640625 C 4038.910156 1153.695312 4037.050781 1152.164062 4035.242188 1149.320312 L 4034.003906 1148.417969 C 4030.023438 1147.125 4025.886719 1144.507812 4023.058594 1141.4375 L 4022.351562 1139.917969 L 4011.714844 1133.574219 C 4007.429688 1131.023438 4003.25 1128.90625 3999.804688 1125.976562 L 3991.4375 1118.847656 Z M 3989.996094 1118.433594 "/>
<path style=" stroke:none;fill-rule:nonzero;fill:rgb(0%,0%,0%);fill-opacity:1;" d="M 4129.855469 1125.441406 C 4123.183594 1126.050781 4119.054688 1121.613281 4116.0625 1117.109375 C 4113.558594 1116.875 4109.46875 1117.164062 4108.730469 1115.425781 L 4105.53125 1107.890625 C 4116.03125 1113.980469 4122.449219 1118.285156 4129.855469 1125.441406 "/>
<path style=" stroke:none;fill-rule:nonzero;fill:rgb(0%,0%,0%);fill-opacity:1;" d="M 4088.4375 976.746094 C 4086.878906 978.496094 4083.695312 980.730469 4082.941406 979.863281 L 4079.421875 975.800781 L 4067.261719 963.257812 Z M 4088.4375 976.746094 "/>
<path style=" stroke:none;fill-rule:nonzero;fill:rgb(0%,0%,0%);fill-opacity:1;" d="M 4047.648438 1070.796875 L 4025.4375 1054.820312 L 4025.964844 1051.878906 L 4049.070312 1068.324219 L 4050.835938 1069.578125 C 4054.363281 1071.207031 4057.300781 1074.292969 4056.503906 1078.773438 L 4049.289062 1071.707031 Z M 4047.648438 1070.796875 "/>
<path style=" stroke:none;fill-rule:nonzero;fill:rgb(0%,0%,0%);fill-opacity:1;" d="M 4035.703125 1045.75 L 4023.125 1036.058594 C 4019.863281 1033.542969 4016.960938 1030.941406 4015.554688 1027.371094 L 4031.789062 1037.964844 C 4033.640625 1039.175781 4035.589844 1043.351562 4035.703125 1045.75 "/>
<path style=" stroke:none;fill-rule:nonzero;fill:rgb(0%,0%,0%);fill-opacity:1;" d="M 4001.273438 1087.101562 C 3992.644531 1087.132812 3982.242188 1082.582031 3976.746094 1073.265625 Z M 4001.273438 1087.101562 "/>
<path style=" stroke:none;fill-rule:nonzero;fill:rgb(0%,0%,0%);fill-opacity:1;" d="M 4050.089844 1178.480469 L 4033.363281 1166.867188 L 4033.800781 1163.929688 L 4053.691406 1176.582031 Z M 4050.089844 1178.480469 "/>
<path style=" stroke:none;fill-rule:nonzero;fill:rgb(0%,0%,0%);fill-opacity:1;" d="M 4020.039062 1068.429688 L 4008.816406 1060.015625 C 4014.65625 1061.402344 4018.351562 1063.855469 4021.53125 1066.425781 L 4022.726562 1067.390625 L 4031.617188 1072.328125 L 4032.847656 1073.234375 L 4051.269531 1088.449219 L 4052.714844 1089.6875 C 4054.601562 1089.914062 4059.367188 1091.25 4059.359375 1093.402344 L 4059.324219 1104.164062 L 4052.398438 1090.84375 C 4052.207031 1090.480469 4050.65625 1090.398438 4049.929688 1090.304688 L 4039.285156 1082.210938 L 4031.542969 1075.398438 L 4030.171875 1074.21875 L 4021.34375 1069.234375 Z M 4020.039062 1068.429688 "/>
<path style=" stroke:none;fill-rule:nonzero;fill:rgb(0%,0%,0%);fill-opacity:1;" d="M 4074.78125 1194.152344 L 4055.253906 1181.074219 L 4055.613281 1178.203125 L 4074.476562 1189.976562 Z M 4074.78125 1194.152344 "/>
<path style=" stroke:none;fill-rule:nonzero;fill:rgb(0%,0%,0%);fill-opacity:1;" d="M 4078.390625 1091.929688 L 4076.402344 1097.96875 C 4075.699219 1084.457031 4063.21875 1086.121094 4061.464844 1076.320312 L 4079.632812 1090.519531 L 4080.703125 1091.367188 L 4089.539062 1096.359375 L 4090.785156 1097.3125 L 4103.984375 1107.597656 C 4096.929688 1106.660156 4092.597656 1103.1875 4089.191406 1099.195312 L 4088.179688 1098.003906 L 4079.488281 1092.925781 Z M 4078.390625 1091.929688 "/>
<path style=" stroke:none;fill-rule:nonzero;fill:rgb(0%,0%,0%);fill-opacity:1;" d="M 4055.882812 980.484375 C 4049.863281 977.652344 4044.003906 972.726562 4039.394531 965.375 C 4046.34375 968.957031 4051.582031 973.089844 4057.128906 978.175781 L 4058.734375 979.648438 C 4062.566406 981.285156 4066.644531 982.207031 4067.320312 990.1875 L 4057.339844 982.222656 Z M 4055.882812 980.484375 "/>
<path style=" stroke:none;fill-rule:nonzero;fill:rgb(0%,0%,0%);fill-opacity:1;" d="M 4042.910156 1117.832031 L 4025.085938 1107.664062 L 4026.082031 1101.914062 Z M 4042.910156 1117.832031 "/>
<path style=" stroke:none;fill-rule:nonzero;fill:rgb(0%,0%,0%);fill-opacity:1;" d="M 4032.070312 1161.519531 L 4028.261719 1165.855469 L 4013.867188 1151.734375 Z M 4032.070312 1161.519531 "/>
<path style=" stroke:none;fill-rule:nonzero;fill:rgb(0%,0%,0%);fill-opacity:1;" d="M 3998.148438 1054.011719 L 3989.207031 1049.519531 C 3988.21875 1049.023438 3985.015625 1048.257812 3984.882812 1047.226562 L 3984.132812 1041.21875 L 3998.972656 1052.054688 L 4000.925781 1053.21875 L 4008.777344 1058.628906 C 4005.132812 1058.65625 4001.746094 1057.679688 4000.230469 1056.144531 C 3999.476562 1055.378906 3998.449219 1054.164062 3998.148438 1054.011719 "/>
<path style=" stroke:none;fill-rule:nonzero;fill:rgb(0%,0%,0%);fill-opacity:1;" d="M 4050.089844 1108.621094 L 4031.179688 1093.160156 L 4032.941406 1091.226562 L 4050.785156 1105.675781 Z M 4050.089844 1108.621094 "/>
<path style=" stroke:none;fill-rule:nonzero;fill:rgb(0%,0%,0%);fill-opacity:1;" d="M 4094.925781 1180.214844 L 4087.742188 1163.566406 L 4095.035156 1165.84375 Z M 4094.925781 1180.214844 "/>
<path style=" stroke:none;fill-rule:nonzero;fill:rgb(0%,0%,0%);fill-opacity:1;" d="M 4030.472656 1000.699219 L 4024.75 1004.421875 L 4017.167969 990.875 Z M 4030.472656 1000.699219 "/>
<path style=" stroke:none;fill-rule:nonzero;fill:rgb(0%,0%,0%);fill-opacity:1;" d="M 4067.898438 1102.390625 L 4060.691406 1096.082031 L 4069.175781 1099.289062 L 4070.53125 1101.984375 C 4076.847656 1103.332031 4083.15625 1108.46875 4081.390625 1116.304688 L 4070.546875 1103.605469 C 4070.316406 1103.335938 4068.203125 1102.523438 4067.898438 1102.390625 "/>
<path style=" stroke:none;fill-rule:nonzero;fill:rgb(0%,0%,0%);fill-opacity:1;" d="M 4025.742188 1270.441406 L 4028.996094 1292.253906 C 4024.316406 1286.65625 4021.9375 1278.03125 4025.742188 1270.441406 "/>
<path style=" stroke:none;fill-rule:nonzero;fill:rgb(0%,0%,0%);fill-opacity:1;" d="M 4102.175781 1149.507812 L 4092.878906 1134.339844 L 4098.746094 1135.742188 C 4100.152344 1136.082031 4101.679688 1139.894531 4102.128906 1141.308594 Z M 4102.175781 1149.507812 "/>
<path style=" stroke:none;fill-rule:nonzero;fill:rgb(0%,0%,0%);fill-opacity:1;" d="M 4040.148438 946.152344 C 4035.484375 944.160156 4031.105469 940.929688 4029.996094 935.152344 L 4041.699219 944.632812 L 4042.789062 945.507812 L 4057.308594 954.84375 L 4058.777344 955.5625 L 4065.320312 961.386719 C 4067.007812 962.886719 4062.679688 969.519531 4062.492188 969.671875 C 4061.066406 964.613281 4059.519531 959.847656 4057.960938 956.910156 C 4057.828125 956.664062 4055.730469 957.070312 4055.457031 957.085938 C 4051.371094 955.101562 4045.257812 950.824219 4041.449219 947.484375 Z M 4040.148438 946.152344 "/>
<path style=" stroke:none;fill-rule:nonzero;fill:rgb(0%,0%,0%);fill-opacity:1;" d="M 4088.140625 1208.417969 L 4078.648438 1192.113281 C 4086.09375 1195.074219 4089.667969 1201.542969 4088.140625 1208.417969 "/>
<path style=" stroke:none;fill-rule:nonzero;fill:rgb(0%,0%,0%);fill-opacity:1;" d="M 4042 1030.359375 L 4034.976562 1023.835938 C 4038.160156 1025.046875 4041.234375 1026.597656 4042.640625 1027.796875 L 4044.683594 1029.542969 L 4051.253906 1034.078125 L 4052.878906 1035.203125 L 4065.097656 1044.050781 L 4066.800781 1045.292969 L 4072.210938 1047.890625 C 4073.851562 1048.675781 4074.496094 1052.660156 4074.574219 1054.84375 L 4065.945312 1047.871094 L 4063.808594 1046.699219 L 4051.363281 1038.097656 L 4050.1875 1036.25 L 4043.699219 1031.582031 Z M 4042 1030.359375 "/>
<path style=" stroke:none;fill-rule:nonzero;fill:rgb(0%,0%,0%);fill-opacity:1;" d="M 4101.765625 1125.050781 L 4087.175781 1115.199219 L 4089.054688 1112.886719 L 4102.8125 1121.925781 Z M 4101.765625 1125.050781 "/>
<path style=" stroke:none;fill-rule:nonzero;fill:rgb(0%,0%,0%);fill-opacity:1;" d="M 4065.871094 1129.773438 L 4062.613281 1138.480469 L 4054.542969 1126.296875 Z M 4065.871094 1129.773438 "/>
<path style=" stroke:none;fill-rule:nonzero;fill:rgb(0%,0%,0%);fill-opacity:1;" d="M 4085.742188 1148.53125 C 4082.917969 1147.328125 4081.175781 1145.976562 4078.828125 1141.535156 C 4082.339844 1143.023438 4085.320312 1144.5625 4086.8125 1145.765625 L 4088.796875 1147.363281 L 4096.8125 1152.527344 L 4098.570312 1153.640625 C 4104.636719 1155.886719 4110.617188 1158.96875 4113.308594 1166.199219 L 4097.632812 1155.589844 L 4096.242188 1154.085938 L 4087.824219 1149.632812 Z M 4085.742188 1148.53125 "/>
<path style=" stroke:none;fill-rule:nonzero;fill:rgb(0%,0%,0%);fill-opacity:1;" d="M 4067.664062 1117.167969 C 4064.574219 1117.5 4059.695312 1117.605469 4059.101562 1115.890625 L 4055.8125 1106.410156 Z M 4067.664062 1117.167969 "/>
<path style=" stroke:none;fill-rule:nonzero;fill:rgb(0%,0%,0%);fill-opacity:1;" d="M 4083.257812 1161.242188 C 4079.257812 1162.660156 4075.597656 1159.988281 4071.613281 1154.875 C 4068.890625 1154.210938 4065.503906 1152.570312 4071.046875 1151.410156 Z M 4083.257812 1161.242188 "/>
<path style=" stroke:none;fill-rule:nonzero;fill:rgb(0%,0%,0%);fill-opacity:1;" d="M 4051.878906 1055.199219 C 4045.648438 1055.375 4041.835938 1051.398438 4041.980469 1044.964844 C 4046.085938 1047.277344 4049.730469 1051.070312 4051.878906 1055.199219 "/>
<path style=" stroke:none;fill-rule:nonzero;fill:rgb(0%,0%,0%);fill-opacity:1;" d="M 4123.796875 1088.777344 L 4111.257812 1077.035156 L 4113.003906 1075.183594 L 4124.765625 1086.015625 Z M 4123.796875 1088.777344 "/>
<path style=" stroke:none;fill-rule:nonzero;fill:rgb(0%,0%,0%);fill-opacity:1;" d="M 4111.292969 1104.34375 L 4103.207031 1089.765625 C 4106.351562 1090.625 4110.066406 1092.132812 4110.710938 1094.144531 C 4111.550781 1096.785156 4111.785156 1103.191406 4111.292969 1104.34375 "/>
<path style=" stroke:none;fill-rule:nonzero;fill:rgb(0%,0%,0%);fill-opacity:1;" d="M 4066.117188 1063.53125 C 4059.296875 1064.136719 4055.726562 1060.671875 4053.175781 1053.980469 Z M 4066.117188 1063.53125 "/>
<path style=" stroke:none;fill-rule:nonzero;fill:rgb(0%,0%,0%);fill-opacity:1;" d="M 4042.382812 1298.03125 L 4037.734375 1277.652344 C 4043.011719 1283.53125 4043.949219 1290.871094 4042.382812 1298.03125 "/>
<path style=" stroke:none;fill-rule:nonzero;fill:rgb(0%,0%,0%);fill-opacity:1;" d="M 4033.878906 1130.378906 C 4030.128906 1129.710938 4025.964844 1125.691406 4025.957031 1121.378906 L 4035.074219 1128.171875 L 4036.746094 1129.421875 L 4043.285156 1134.648438 L 4044.601562 1135.6875 C 4046.710938 1135.96875 4051.753906 1137.898438 4052.085938 1140.269531 L 4053.375 1149.496094 L 4044.804688 1136.640625 L 4042.257812 1135.90625 L 4035.753906 1131.613281 Z M 4033.878906 1130.378906 "/>
<path style=" stroke:none;fill-rule:nonzero;fill:rgb(0%,0%,0%);fill-opacity:1;" d="M 4028.382812 1093.011719 L 4017.0625 1082.269531 C 4023.589844 1082.710938 4028.109375 1085.605469 4028.382812 1093.011719 "/>
<path style=" stroke:none;fill-rule:nonzero;fill:rgb(0%,0%,0%);fill-opacity:1;" d="M 4086.078125 1062.183594 C 4081.894531 1060.898438 4078.425781 1057.5 4076.816406 1051.339844 L 4087.011719 1060.429688 L 4088.613281 1061.859375 L 4095.078125 1063.753906 C 4097.035156 1064.324219 4097.460938 1068.765625 4096.933594 1071.867188 L 4087.636719 1062.996094 Z M 4086.078125 1062.183594 "/>
<path style=" stroke:none;fill-rule:nonzero;fill:rgb(0%,0%,0%);fill-opacity:1;" d="M 4116.105469 1134.175781 C 4112.636719 1132.882812 4109.941406 1131.742188 4106.734375 1126.015625 L 4117.636719 1132.417969 L 4119.035156 1133.273438 L 4129.757812 1143.933594 C 4123.660156 1142.199219 4120.164062 1138.945312 4117.152344 1135.167969 Z M 4116.105469 1134.175781 "/>
<path style=" stroke:none;fill-rule:nonzero;fill:rgb(0%,0%,0%);fill-opacity:1;" d="M 4073.5 1146.933594 L 4067.417969 1134.070312 C 4069.28125 1134.273438 4074.453125 1135.875 4074.308594 1137.527344 Z M 4073.5 1146.933594 "/>
<path style=" stroke:none;fill-rule:nonzero;fill:rgb(0%,0%,0%);fill-opacity:1;" d="M 4011.878906 1042.9375 L 4006.570312 1043.144531 C 4005.582031 1043.183594 4004.925781 1046.234375 4004.242188 1048.027344 L 4001.371094 1036.050781 Z M 4011.878906 1042.9375 "/>
<path style=" stroke:none;fill-rule:nonzero;fill:rgb(0%,0%,0%);fill-opacity:1;" d="M 4116.109375 1148.015625 L 4109.949219 1152.101562 L 4106.773438 1140.515625 Z M 4116.109375 1148.015625 "/>
<path style=" stroke:none;fill-rule:nonzero;fill:rgb(0%,0%,0%);fill-opacity:1;" d="M 4013.832031 1080.90625 C 4009.378906 1080.875 4004.757812 1077.28125 4003.085938 1071.828125 C 4007.398438 1073.808594 4009.621094 1075.183594 4013.832031 1080.90625 "/>
<path style=" stroke:none;fill-rule:nonzero;fill:rgb(0%,0%,0%);fill-opacity:1;" d="M 4009.515625 1154.734375 L 4001.621094 1144.4375 C 4006.40625 1143.234375 4013.332031 1147.25 4009.515625 1154.734375 "/>
<path style=" stroke:none;fill-rule:nonzero;fill:rgb(0%,0%,0%);fill-opacity:1;" d="M 4080.148438 1128.144531 C 4076.207031 1126.167969 4072.253906 1123.910156 4069.035156 1118.222656 L 4081.472656 1126.347656 L 4082.921875 1127.289062 C 4085.257812 1128.28125 4086.78125 1129.132812 4090.152344 1133.492188 L 4081.28125 1129.308594 C 4081 1129.175781 4080.816406 1128.882812 4080.148438 1128.144531 "/>
<path style=" stroke:none;fill-rule:nonzero;fill:rgb(0%,0%,0%);fill-opacity:1;" d="M 4020.390625 1123.976562 L 4013 1114.46875 C 4018.125 1113.957031 4022.191406 1116.925781 4020.390625 1123.976562 "/>
<path style=" stroke:none;fill-rule:nonzero;fill:rgb(0%,0%,0%);fill-opacity:1;" d="M 4085.71875 1081.339844 L 4077.550781 1072.3125 C 4084.152344 1072.429688 4087.578125 1076.136719 4085.71875 1081.339844 "/>
<path style=" stroke:none;fill-rule:nonzero;fill:rgb(0%,0%,0%);fill-opacity:1;" d="M 4000.085938 1020.121094 C 3996.167969 1019.148438 3992.46875 1016.039062 3992.101562 1011.09375 L 4001.433594 1018.652344 L 4002.617188 1019.804688 C 4006.425781 1021.761719 4010.300781 1023.433594 4011.480469 1028.667969 L 4001.207031 1021.480469 Z M 4000.085938 1020.121094 "/>
<path style=" stroke:none;fill-rule:nonzero;fill:rgb(0%,0%,0%);fill-opacity:1;" d="M 4055.792969 1162.765625 L 4046.351562 1155.78125 L 4057.246094 1158.855469 C 4058.421875 1161.058594 4058.734375 1161.640625 4058.699219 1161.578125 C 4061.648438 1163.261719 4064.457031 1165.804688 4065.035156 1170.109375 C 4062.808594 1168.882812 4059.355469 1166.117188 4057.421875 1164.296875 Z M 4055.792969 1162.765625 "/>
<path style=" stroke:none;fill-rule:nonzero;fill:rgb(0%,0%,0%);fill-opacity:1;" d="M 4106.769531 1078.167969 L 4098.273438 1069.085938 C 4102.695312 1068.625 4108.003906 1070.921875 4106.769531 1078.167969 "/>
<path style=" stroke:none;fill-rule:nonzero;fill:rgb(0%,0%,0%);fill-opacity:1;" d="M 4023.464844 1050.8125 L 4016.078125 1050.988281 C 4014.390625 1051.03125 4013.972656 1045.15625 4015.007812 1043.296875 Z M 4023.464844 1050.8125 "/>
<path style=" stroke:none;fill-rule:nonzero;fill:rgb(0%,0%,0%);fill-opacity:1;" d="M 4009.921875 1111.054688 L 4004.5625 1111.898438 C 4002.992188 1112.144531 4001.84375 1107.917969 4001.820312 1105.753906 Z M 4009.921875 1111.054688 "/>
<path style=" stroke:none;fill-rule:nonzero;fill:rgb(0%,0%,0%);fill-opacity:1;" d="M 4102.453125 1206.863281 L 4096.558594 1207.503906 C 4095.046875 1207.667969 4094.210938 1204.53125 4093.808594 1201.058594 Z M 4102.453125 1206.863281 "/>
<path style=" stroke:none;fill-rule:nonzero;fill:rgb(0%,0%,0%);fill-opacity:1;" d="M 4018.082031 1102.789062 L 4011.066406 1096.425781 L 4017.453125 1096.871094 C 4019 1096.976562 4018.894531 1102.097656 4018.082031 1102.789062 "/>
<path style=" stroke:none;fill-rule:nonzero;fill:rgb(0%,0%,0%);fill-opacity:1;" d="M 4052.289062 1126.109375 L 4044.226562 1121.871094 C 4047.570312 1118.304688 4051.761719 1120.828125 4052.289062 1126.109375 "/>
<path style=" stroke:none;fill-rule:nonzero;fill:rgb(0%,0%,0%);fill-opacity:1;" d="M 4065.042969 1151.585938 L 4057.351562 1144.625 C 4060.777344 1143.179688 4065.300781 1147.207031 4065.042969 1151.585938 "/>
<path style=" stroke:none;fill-rule:nonzero;fill:rgb(0%,0%,0%);fill-opacity:1;" d="M 4053.015625 1257.722656 C 4050.28125 1254.417969 4049.097656 1250.648438 4050.398438 1245.566406 Z M 4053.015625 1257.722656 "/>
<path style=" stroke:none;fill-rule:nonzero;fill:rgb(0%,0%,0%);fill-opacity:1;" d="M 3986.105469 1066.148438 L 3981.320312 1059.820312 L 3988.660156 1061.714844 C 3990.015625 1062.066406 3986.871094 1065.746094 3986.105469 1066.148438 "/>
<path style=" stroke:none;fill-rule:nonzero;fill:rgb(0%,0%,0%);fill-opacity:1;" d="M 4039.023438 1273.714844 C 4036.289062 1270.410156 4035.101562 1266.640625 4036.40625 1261.558594 Z M 4039.023438 1273.714844 "/>
<path style=" stroke:none;fill-rule:nonzero;fill:rgb(0%,0%,0%);fill-opacity:1;" d="M 3991.550781 1031.105469 C 3991.625 1030.09375 3995.773438 1031.304688 3995.863281 1032.3125 L 3996.191406 1035.964844 C 3996.316406 1037.34375 3991.445312 1032.453125 3991.550781 1031.105469 "/>
<path style=" stroke:none;fill-rule:nonzero;fill:rgb(0%,0%,0%);fill-opacity:1;" d="M 4061.945312 945.949219 L 4061.714844 937.902344 L 4065.511719 941.167969 C 4066.332031 941.878906 4063.792969 944.378906 4061.945312 945.949219 "/>
<path style=" stroke:none;fill-rule:nonzero;fill:rgb(0%,0%,0%);fill-opacity:1;" d="M 4121.996094 1104.03125 C 4120.417969 1103.6875 4116.851562 1100.101562 4117.871094 1098.484375 C 4118.6875 1097.191406 4122.320312 1100.480469 4123.238281 1101.683594 L 4124.660156 1103.535156 L 4131.847656 1110.085938 L 4123.472656 1106.140625 Z M 4121.996094 1104.03125 "/>
<path style=" stroke:none;fill-rule:nonzero;fill:rgb(0%,0%,0%);fill-opacity:1;" d="M 4071.835938 1072.136719 L 4069.285156 1069.28125 C 4068.570312 1068.480469 4067.222656 1065.867188 4068.222656 1066.222656 L 4072.691406 1067.804688 C 4073.707031 1068.160156 4072.550781 1072.9375 4071.835938 1072.136719 "/>
<path style=" stroke:none;fill-rule:nonzero;fill:rgb(0%,0%,0%);fill-opacity:1;" d="M 4124.191406 1156.316406 L 4117.019531 1150.386719 C 4120.699219 1149.691406 4123.429688 1151.621094 4124.191406 1156.316406 "/>
<path style=" stroke:none;fill-rule:nonzero;fill:rgb(0%,0%,0%);fill-opacity:1;" d="M 4019.808594 1269.9375 L 4019.261719 1258.824219 L 4020.964844 1257.726562 L 4021.507812 1268.839844 Z M 4019.808594 1269.9375 "/>
<path style=" stroke:none;fill-rule:nonzero;fill:rgb(0%,0%,0%);fill-opacity:1;" d="M 4091.792969 1082.605469 C 4091.660156 1081.875 4095.125 1082.390625 4095.640625 1082.820312 C 4096.40625 1083.46875 4097.539062 1085.355469 4096.769531 1085.992188 L 4094.191406 1088.128906 C 4093.429688 1088.761719 4092.058594 1084.070312 4091.792969 1082.605469 "/>
</g>
</svg>
